<?xml version="1.0" encoding="UTF-8" standalone="no"?>
<!-- Created with Inkscape (http://www.inkscape.org/) -->

<svg
   width="100"
   height="100"
   viewBox="0 0 26.458333 26.458334"
   version="1.1"
   id="svg5"
   inkscape:version="1.3.2 (1:1.3.2+202311252150+091e20ef0f)"
   sodipodi:docname="logo.svg"
   xmlns:inkscape="http://www.inkscape.org/namespaces/inkscape"
   xmlns:sodipodi="http://sodipodi.sourceforge.net/DTD/sodipodi-0.dtd"
   xmlns="http://www.w3.org/2000/svg"
   xmlns:svg="http://www.w3.org/2000/svg">
  <sodipodi:namedview
     id="namedview7"
     pagecolor="#ffffff"
     bordercolor="#000000"
     borderopacity="0.25"
     inkscape:pageshadow="2"
     inkscape:pageopacity="0.0"
     inkscape:pagecheckerboard="0"
     inkscape:document-units="mm"
     showgrid="false"
     units="px"
     width="100px"
     inkscape:zoom="6.2217172"
     inkscape:cx="33.029467"
     inkscape:cy="66.058933"
     inkscape:window-width="2248"
     inkscape:window-height="1376"
     inkscape:window-x="0"
     inkscape:window-y="27"
     inkscape:window-maximized="0"
     inkscape:current-layer="g4077"
     inkscape:showpageshadow="2"
     inkscape:deskcolor="#d1d1d1" />
  <defs
     id="defs2" />
  <g
     inkscape:label="Layer 1"
     inkscape:groupmode="layer"
     id="layer1">
    <g
       id="g4077"
       transform="translate(0.14705746,-0.96510784)">
      <g
         aria-label="&lt;   &gt;"
         transform="matrix(1.8095937,0,0,0.54890456,18.581288,-3.8604952)"
         id="text462"
         style="font-weight:bold;font-size:18.0975px;font-family:'DejaVu Sans';-inkscape-font-specification:'DejaVu Sans Bold';writing-mode:tb-rl;opacity:1;fill:#00ff00;stroke-width:2.35054">
        <path
           d="m -0.11014076,20.346375 -2.93377464,-8.51855 -2.9161011,8.51855 H -8.169184 L -4.0778058,9.0177645 h 2.0854541 L 2.0990262,20.346375 Z"
           id="path26204" />
        <path
           d="M -0.11396438,45.465357 H 2.0952026 L -1.9961753,56.793968 H -4.0816294 L -8.1730076,45.465357 h 2.2091675 l 2.9161011,8.527387 z"
           id="path26206" />
      </g>
      <g
         id="text1"
         style="font-size:6.49933px;font-family:'Open Sans';-inkscape-font-specification:'Open Sans';text-align:center;text-anchor:middle;opacity:0.99;fill:#ff00ff;stroke:#ff00ff;stroke-width:0.243724"
         aria-label="Bisec.&#10;k-means">
        <path
           style="font-family:'Baekmuk Headline';-inkscape-font-specification:'Baekmuk Headline'"
           d="m 7.8013002,12.036891 q 0,-0.331466 -0.1624832,-0.617437 -0.084491,-0.142985 -0.2014792,-0.259973 -0.1104886,-0.116988 -0.2599732,-0.18848 0.2664725,-0.188481 0.3769611,-0.48745 0.090991,-0.233976 0.090991,-0.5069478 0,-0.4679518 -0.4094578,-0.8124163 Q 6.8199014,8.8262217 6.2739577,8.8262217 H 3.8757049 v 4.5430313 h 2.1187816 q 0.9034069,0 1.3908566,-0.415957 0.4159571,-0.357463 0.4159571,-0.916405 z M 6.6249215,10.048096 q 0,0.29247 -0.1494846,0.441954 -0.1819812,0.188481 -0.5784404,0.188481 H 4.7791118 V 9.5086514 h 1.2153747 q 0.3249665,0 0.5069477,0.2209772 0.1234873,0.1494846 0.1234873,0.3184674 z m 0.1689826,1.949799 q 0,0.337965 -0.2404752,0.513447 -0.2469746,0.155984 -0.6564324,0.155984 H 4.7791118 v -1.319364 h 1.1178847 q 0.4224565,0 0.6629317,0.18848 0.2339759,0.168983 0.2339759,0.461453 z m 2.3267557,1.35836 V 9.8206192 H 8.1912556 V 13.356255 Z M 8.119763,9.0147023 q 0,0.2209772 0.1559839,0.3704618 0.1559839,0.1494846 0.3834605,0.1494846 0.2274765,0 0.3834605,-0.1494846 0.1624832,-0.1494846 0.1624832,-0.3704618 0,-0.2209772 -0.1624832,-0.3704618 -0.155984,-0.1559839 -0.3834605,-0.1559839 -0.2274766,0 -0.3834605,0.1559839 Q 8.119763,8.7937251 8.119763,9.0147023 Z m 4.523522,2.0082927 q -0.0325,-0.149484 -0.09749,-0.279471 -0.05849,-0.129987 -0.142985,-0.240475 -0.142985,-0.175482 -0.298969,-0.266473 -0.246975,-0.136486 -0.415957,-0.19498 -0.272972,-0.09749 -0.604438,-0.09749 -0.721426,0 -1.1308833,0.3509635 -0.3444645,0.29247 -0.3444645,0.747423 0,0.181982 0.1104886,0.331466 0.051995,0.05849 0.1364859,0.123487 0.084491,0.06499 0.2014793,0.136486 0.09099,0.05199 0.227477,0.110489 0.136485,0.05199 0.305468,0.123487 0.110489,0.0455 0.305469,0.116988 0.201479,0.06499 0.48095,0.162483 0.155984,0.05199 0.240475,0.136486 0.07799,0.07149 0.07799,0.116988 0,0.142986 -0.162483,0.220977 -0.07149,0.0325 -0.181981,0.07149 -0.10399,0.0325 -0.233976,0.0325 -0.123488,0 -0.233976,-0.0455 -0.103989,-0.05199 -0.19498,-0.116987 -0.227477,-0.162484 -0.350964,-0.48745 l -0.8124161,0.38346 q 0.1429853,0.259973 0.2989692,0.441955 0.1559839,0.181981 0.3249669,0.298969 0.38346,0.246974 0.9684,0.246974 0.77342,0 1.182878,-0.331465 0.337965,-0.279472 0.337965,-0.773421 0,-0.240475 -0.149485,-0.422456 -0.08449,-0.103989 -0.214477,-0.19498 -0.123488,-0.09099 -0.305469,-0.181981 -0.09099,-0.0455 -0.285971,-0.110489 -0.18848,-0.06499 -0.48095,-0.155984 -0.461452,-0.149484 -0.519946,-0.207978 -0.116988,-0.136486 0.013,-0.233976 0.06499,-0.05199 0.162484,-0.09099 0.103989,-0.0455 0.253473,-0.0455 0.116988,0 0.207979,0.0455 0.09099,0.039 0.162483,0.08449 0.142986,0.10399 0.19498,0.337966 z m 3.60712,1.013896 q 0.05849,-1.039893 -0.402958,-1.514344 -0.409458,-0.402959 -1.254371,-0.415957 -0.727925,-0.0065 -1.16338,0.428956 -0.461452,0.461452 -0.461452,1.25437 0,0.747423 0.435455,1.182878 0.454953,0.467952 1.247871,0.467952 0.539445,0 0.955402,-0.227476 0.448454,-0.259974 0.630435,-0.753923 l -0.948902,-0.29247 q -0.07799,0.259974 -0.272972,0.402959 -0.149485,0.103989 -0.337965,0.103989 -0.39646,0 -0.552444,-0.181981 -0.05849,-0.07149 -0.103989,-0.175482 -0.039,-0.110489 -0.06499,-0.279471 z m -1.020394,-0.630435 h -1.26087 q 0.0195,-0.233976 0.220977,-0.370462 0.18848,-0.149485 0.448454,-0.149485 0.253473,0 0.402958,0.110489 0.175482,0.123487 0.188481,0.409458 z m 4.686006,0.786419 -0.981399,-0.168983 q -0.06499,0.285971 -0.253474,0.435455 -0.162483,0.142985 -0.38346,0.142985 -0.344465,0 -0.526446,-0.201479 -0.233976,-0.220977 -0.233976,-0.721425 0.013,-0.435455 0.227477,-0.636935 0.181981,-0.201479 0.519946,-0.201479 0.240475,0 0.415957,0.136486 0.175482,0.136486 0.20148,0.344464 l 0.929404,-0.181981 q -0.07149,-0.272972 -0.220977,-0.48745 -0.149485,-0.214477 -0.376962,-0.357463 -0.389959,-0.246974 -0.948902,-0.246974 -0.799417,0 -1.254371,0.454953 -0.454953,0.454953 -0.454953,1.234873 0,0.786419 0.461453,1.228373 0.227476,0.227477 0.532945,0.331466 0.305468,0.103989 0.701928,0.103989 0.643433,0 1.039892,-0.266472 0.428956,-0.279472 0.604438,-0.942403 z m 1.832805,1.598835 q 0.026,-0.227477 -0.142985,-0.415957 -0.08449,-0.09099 -0.188481,-0.136486 -0.09749,-0.0455 -0.227476,-0.05849 -0.253474,-0.026 -0.448454,0.116988 -0.19498,0.162483 -0.220977,0.396459 -0.0325,0.214478 0.136486,0.402958 0.168982,0.168983 0.415957,0.188481 0.253474,0.0195 0.454953,-0.123487 0.18848,-0.129987 0.220977,-0.370462 z"
           id="path1" />
        <path
           style="font-family:'Baekmuk Headline';-inkscape-font-specification:'Baekmuk Headline'"
           d="M 3.5832314,20.000072 2.2378701,18.004777 3.5117387,16.763405 H 2.257368 L 1.1914779,17.7838 V 15.450541 H 0.24907506 v 4.549531 H 1.1849786 v -1.013896 l 0.3834605,-0.350964 0.8774095,1.36486 z M 6.7354047,18.362241 V 17.744804 H 4.2331626 v 0.617437 z m 5.0694763,1.631331 V 18.07627 q 0,-0.623936 -0.38346,-0.909906 -0.305469,-0.227477 -0.87091,-0.227477 -0.129987,0 -0.253474,0.0195 -0.123487,0.013 -0.246975,0.0455 -0.2664722,0.07149 -0.3574628,0.201479 -0.1429853,-0.142985 -0.3769612,-0.214478 -0.2209772,-0.05199 -0.4679517,-0.05199 -0.155984,0 -0.2729719,0.0195 -0.064993,0.0065 -0.1299866,0.0195 -0.058494,0.0065 -0.1104886,0.0325 V 16.795902 H 7.385337 v 3.19767 h 0.9294042 v -1.865307 q 0,-0.116988 0.019498,-0.19498 0.025997,-0.08449 0.071493,-0.142986 0.1039893,-0.142985 0.3639625,-0.142985 0.2404752,0 0.3379652,0.142985 0.084491,0.123488 0.084491,0.39646 v 1.806813 h 0.9034072 v -1.83931 q 0,-0.29247 0.09099,-0.422456 0.10399,-0.129987 0.344465,-0.129987 0.181981,0 0.272972,0.116988 0.07149,0.129986 0.07149,0.38996 v 1.884805 z m 3.607125,-1.319364 q 0.05849,-1.039892 -0.402958,-1.514344 -0.409458,-0.402958 -1.254371,-0.415957 -0.727925,-0.0065 -1.16338,0.428956 -0.461452,0.461453 -0.461452,1.254371 0,0.747423 0.435455,1.182878 0.454953,0.467952 1.247871,0.467952 0.539445,0 0.955402,-0.227477 0.448454,-0.259973 0.630435,-0.753922 l -0.948902,-0.29247 q -0.07799,0.259973 -0.272972,0.402958 -0.149485,0.10399 -0.337965,0.10399 -0.39646,0 -0.552443,-0.181982 -0.05849,-0.07149 -0.10399,-0.175481 -0.039,-0.110489 -0.06499,-0.279472 z m -1.020394,-0.630435 h -1.26087 q 0.0195,-0.233976 0.220977,-0.370461 0.18848,-0.149485 0.448454,-0.149485 0.253473,0 0.402958,0.110489 0.175482,0.123487 0.188481,0.409457 z m 4.380538,1.949799 q -0.06499,-0.142985 -0.09099,-0.233975 -0.0455,-0.116988 -0.06499,-0.266473 -0.013,-0.07149 -0.0195,-0.136486 -0.0065,-0.07149 -0.0065,-0.129987 0.0065,-0.162483 0.0065,-0.233975 0,-0.07149 0,-0.07149 v -0.935904 q 0,-0.305468 -0.026,-0.435455 -0.013,-0.08449 -0.04549,-0.162483 -0.0325,-0.08449 -0.08449,-0.175482 -0.08449,-0.142985 -0.19498,-0.246974 -0.103989,-0.110489 -0.240475,-0.175482 -0.305469,-0.142986 -0.77992,-0.142986 -0.331466,0 -0.57844,0.08449 -0.233976,0.07149 -0.415957,0.214478 -0.149485,0.116988 -0.285971,0.311967 -0.162483,0.240476 -0.207979,0.448454 l 0.864411,0.19498 q 0.0325,-0.07149 0.05849,-0.123487 0.026,-0.05849 0.052,-0.09099 0.0325,-0.05849 0.06499,-0.103989 0.0325,-0.052 0.06499,-0.08449 0.136485,-0.155984 0.396459,-0.155984 0.266472,-0.013 0.376961,0.155984 0.0325,0.05199 0.05849,0.110488 0.0325,0.07799 0.039,0.142986 -0.142985,0.05199 -0.363963,0.116987 -0.103989,0.026 -0.220977,0.052 -0.116988,0.026 -0.246974,0.05849 -0.597939,0.09749 -0.883909,0.422457 -0.246975,0.28597 -0.246975,0.695428 0,0.422456 0.298969,0.701927 0.305469,0.266473 0.747423,0.266473 0.279471,0 0.474451,-0.05849 0.10399,-0.0325 0.220978,-0.07799 0.123487,-0.05199 0.259973,-0.142985 0.0065,0.0325 0.013,0.05849 0.0065,0.026 0.013,0.04549 0.0065,0.0325 0.039,0.103989 z m -1.059391,-1.091887 q -0.0455,0.05849 -0.123487,0.123487 -0.07799,0.05849 -0.188481,0.129987 -0.116988,0.07149 -0.220977,0.110488 -0.10399,0.0325 -0.19498,0.05199 -0.142985,0.039 -0.259973,-0.05849 -0.09749,-0.09749 -0.09749,-0.240475 0,-0.129987 0.129986,-0.240475 0.129987,-0.116988 0.402959,-0.168983 0.0065,0 0.279471,-0.07799 0.08449,-0.026 0.149485,-0.04549 0.07149,-0.0195 0.123487,-0.039 z m 4.497525,1.098387 v -2.086285 q 0,-0.552443 -0.461452,-0.844913 -0.188481,-0.110489 -0.422457,-0.168983 -0.233976,-0.06499 -0.526445,-0.06499 -0.10399,0 -0.207979,0.013 -0.09749,0.0065 -0.188481,0.0195 -0.09749,0.0195 -0.18848,0.05199 -0.08449,0.026 -0.168983,0.05849 v -0.175482 h -0.948902 v 3.197671 h 0.929404 v -1.871807 q 0,-0.29247 0.181982,-0.467952 0.168982,-0.136486 0.454953,-0.149485 0.311968,-0.0065 0.487449,0.19498 0.129987,0.168983 0.129987,0.422457 v 1.871807 z m 3.44464,-2.339759 q -0.0325,-0.149485 -0.09749,-0.279471 -0.05849,-0.129987 -0.142985,-0.240476 -0.142985,-0.175481 -0.298969,-0.266472 -0.246974,-0.136486 -0.415957,-0.19498 -0.272972,-0.09749 -0.604438,-0.09749 -0.721425,0 -1.130883,0.350964 -0.344465,0.29247 -0.344465,0.747423 0,0.181981 0.110489,0.331466 0.052,0.05849 0.136486,0.123487 0.08449,0.06499 0.201479,0.136486 0.09099,0.052 0.227477,0.110489 0.136486,0.05199 0.305468,0.123487 0.110489,0.04549 0.305469,0.116988 0.201479,0.06499 0.48095,0.162483 0.155984,0.05199 0.240475,0.136486 0.07799,0.07149 0.07799,0.116988 0,0.142985 -0.162483,0.220977 -0.07149,0.0325 -0.181981,0.07149 -0.10399,0.0325 -0.233976,0.0325 -0.123487,0 -0.233976,-0.04549 -0.103989,-0.05199 -0.19498,-0.116988 -0.227476,-0.162483 -0.350964,-0.48745 l -0.812416,0.383461 q 0.142985,0.259973 0.298969,0.441954 0.155984,0.181982 0.324967,0.298969 0.38346,0.246975 0.9684,0.246975 0.77342,0 1.182878,-0.331466 0.337965,-0.279471 0.337965,-0.77342 0,-0.240475 -0.149484,-0.422457 -0.08449,-0.103989 -0.214478,-0.194979 -0.123488,-0.09099 -0.305469,-0.181982 -0.09099,-0.04549 -0.28597,-0.110488 -0.188481,-0.06499 -0.480951,-0.155984 -0.461452,-0.149485 -0.519946,-0.207979 -0.116988,-0.136486 0.013,-0.233976 0.06499,-0.05199 0.162484,-0.09099 0.103989,-0.0455 0.253474,-0.0455 0.116987,0 0.207978,0.0455 0.09099,0.039 0.162483,0.08449 0.142986,0.103989 0.19498,0.337965 z"
           id="path2" />
      </g>
    </g>
  </g>
</svg>
